{"title":"Rango (2011) DVDSCR XviD-MAX","uid":6426305,"size":1474702991,"categoryP":"video","categoryS":"movies","magnet":"?xt=urn:btih:200b4d0697c26cbd37a23d648f18ef051bc0a6af&amp;dn=Rango+%282011%29+DVDSCR+XviD-MAX&amp;tr=udp%3A%2F%2Ftracker.openbittorrent.com%3A80&amp;tr=udp%3A%2F%2Fopen.demonii.com%3A1337&amp;tr=udp%3A%2F%2Ftracker.coppersurfer.tk%3A6969&amp;tr=udp%3A%2F%2Fexodus.desync.com%3A6969","seeders":23,"leechers":1,"uploader":"extremezone","files":-1,"time":1306488123,"description":" &lt;a href=&quot;http://leetleech.org/images/67121578416349506103.jpg&quot; rel=&quot;nofollow&quot; target=&quot;_NEW&quot;&gt;http://leetleech.org/images/67121578416349506103.jpg&lt;/a&gt;\n\nScreens:\n &lt;a href=&quot;\nhttp://leetleech.org/images/37085989094753450044.jpg&quot; rel=&quot;nofollow&quot; target=&quot;_NEW&quot;&gt;\nhttp://leetleech.org/images/37085989094753450044.jpg&lt;/a&gt;\n &lt;a href=&quot;\nhttp://leetleech.org/images/71295089789165449884.jpg&quot; rel=&quot;nofollow&quot; target=&quot;_NEW&quot;&gt;\nhttp://leetleech.org/images/71295089789165449884.jpg&lt;/a&gt;\n &lt;a href=&quot;\nhttp://leetleech.org/images/28333524772863855243.jpg&quot; rel=&quot;nofollow&quot; target=&quot;_NEW&quot;&gt;\nhttp://leetleech.org/images/28333524772863855243.jpg&lt;/a&gt;\n &lt;a href=&quot;\nhttp://leetleech.org/images/27133034605419951861.jpg&quot; rel=&quot;nofollow&quot; target=&quot;_NEW&quot;&gt;\nhttp://leetleech.org/images/27133034605419951861.jpg&lt;/a&gt;\nAlternative:\n &lt;a href=&quot;\nhttp://www.postimg.com/image/38000/photo-37301.jpg&quot; rel=&quot;nofollow&quot; target=&quot;_NEW&quot;&gt;\nhttp://www.postimg.com/image/38000/photo-37301.jpg&lt;/a&gt;\n &lt;a href=&quot;\nhttp://www.postimg.com/image/38000/photo-37302.jpg&quot; rel=&quot;nofollow&quot; target=&quot;_NEW&quot;&gt;\nhttp://www.postimg.com/image/38000/photo-37302.jpg&lt;/a&gt;\n &lt;a href=&quot;\nhttp://www.postimg.com/image/38000/photo-37303.jpg&quot; rel=&quot;nofollow&quot; target=&quot;_NEW&quot;&gt;\nhttp://www.postimg.com/image/38000/photo-37303.jpg&lt;/a&gt;\n &lt;a href=&quot;\nhttp://www.postimg.com/image/38000/photo-37304.jpg&quot; rel=&quot;nofollow&quot; target=&quot;_NEW&quot;&gt;\nhttp://www.postimg.com/image/38000/photo-37304.jpg&lt;/a&gt;\n\nScreenCaps:\n &lt;a href=&quot;\nhttp://www.postimg.com/image/38000/photo-37305.jpg&quot; rel=&quot;nofollow&quot; target=&quot;_NEW&quot;&gt;\nhttp://www.postimg.com/image/38000/photo-37305.jpg&lt;/a&gt;\n\nRango (2011) DVDSCR XviD-MAX\nFormat                           : AVI\nFormat/Info                      : Audio Video Interleave\nFormat profile                   : OpenDML\nFile size                        : 1.37 GiB\nDuration                         : 1h 47mn\nOverall bit rate                 : 1 823 Kbps\nWriting application              : VirtualDubMod 1.5.10.2 (build 2542/release)\nWriting library                  : VirtualDubMod build 2542/release\nOriginal source form             : MAX TORRENTZ\nCopyright                        : SIGISMUNT\n\nVideo\nID                               : 0\nFormat                           : MPEG-4 Visual\nFormat profile                   : AdvancedSimple@L5\nFormat settings, BVOP            : Yes\nFormat settings, QPel            : No\nFormat settings, GMC             : No warppoints\nFormat settings, Matrix          : Custom\nCodec ID                         : XVID\nCodec ID/Hint                    : XviD\nDuration                         : 1h 47mn\nBit rate                         : 1 625 Kbps\nWidth                            : 720 pixels\nHeight                           : 304 pixels\nDisplay aspect ratio             : 2.35:1\nFrame rate                       : 23.976 fps\nResolution                       : 24 bits\nColorimetry                      : 4:2:0\nScan type                        : Progressive\nBits/(Pixel*Frame)               : 0.310\nStream size                      : 1.22 GiB (89%)\nWriting library                  : XviD 58\n\nAudio\nID                               : 1\nFormat                           : AC-3\nFormat/Info                      : Audio Coding 3\nCodec ID                         : 2000\nDuration                         : 1h 47mn\nBit rate mode                    : Constant\nBit rate                         : 192 Kbps\nChannel(s)                       : 2 channels\nChannel positions                : L R\nSampling rate                    : 48.0 KHz\nStream size                      : 147 MiB (11%)\nAlignment                        : Aligned on interleaves\nInterleave, duration             : 64 ms (1.53 video frames)\nInterleave, preload duration     : 192 ms\n &lt;a href=&quot;\nhttp://www.imdb.com/title/tt1192628/&quot; rel=&quot;nofollow&quot; target=&quot;_NEW&quot;&gt;\nhttp://www.imdb.com/title/tt1192628/&lt;/a&gt;\n\nSource: DVDSCR (perfect a/v/sync quality , sample included)\nThis release is not seedbox supported , please seed it to the MAX\n\nRango (2011) DVDSCR XviD-MAX Torrent Free Download\n &lt;a href=&quot;\nhttp://thepiratebay.se/user/extremezone/0/7&quot; rel=&quot;nofollow&quot; target=&quot;_NEW&quot;&gt;\nhttp://thepiratebay.se/user/extremezone/0/7&lt;/a&gt;\n\nHow To Get Your Maxspeed (uTorrent)\n\nTorrent Client - Preferences - Bandwidth - Number of connections - Set aprox. 500 for each \nTorrent Client - Preferences - BiTorrent - Protocol Encryption - Forced\nBandwidth Allocation - High (Set download/upload limit - Unlimited)\nStop Other Active Torrents - Start downloading and wait for connections.\nEnjoy and Seed for at least 1:1 ratio. Don't forget to say thanks/leave reviews.\nBefore downloading you should check/google search sample &quot;release name&quot;&quot;sample&quot;.\nGreets to all actual/future p2p/scene QUALITY groups and affiliate websites.\nDon't trust IMDb robot or bad ratings,always watch some trailers first.\nIgnore stupid comments/fake/mislabeled/no-DVDrips/CAM/TS/RAR uploads.\nPlease spread this release/torrent to your friends/forums/etc.\nIf you need translation subs visit some subtitles sites.\nReport if you see online streaming or other spam links.\nRecommended movie player VLC PLAYER.","torrent":{"xt":"urn:btih:200b4d0697c26cbd37a23d648f18ef051bc0a6af","amp;dn":"Rango+%282011%29+DVDSCR+XviD-MAX","amp;tr":["udp%3A%2F%2Ftracker.openbittorrent.com%3A80","udp%3A%2F%2Fopen.demonii.com%3A1337","udp%3A%2F%2Ftracker.coppersurfer.tk%3A6969","udp%3A%2F%2Fexodus.desync.com%3A6969"],"infoHash":"200b4d0697c26cbd37a23d648f18ef051bc0a6af","infoHashBuffer":{"type":"Buffer","data":[32,11,77,6,151,194,108,189,55,162,61,100,143,24,239,5,27,192,166,175]},"announce":[],"urlList":[]}}